# xmcd
#
# Track frame offsets: 
#        150
#        21433
#        40032
#        64502
#        86057
#        104324
#        118617
#        137352
#        146624
#        163903
#        177191
#        195126
#        217385
#        234471
#        252233
#        262673
#        276171
#        288321
#        309275
#        322824
#        340607
#
# Disc length: 4790 seconds
#
# Revision: 0
# Processed by: cddbd v1.5.2PL0 Copyright (c) Steve Scherf et al.
# Submitted via: ExactAudioCopy v1.1
#
DISCID=2312b415
DTITLE=Various Artist - Afscheid Volume 2 - CD 2
DYEAR=2019
DGENRE=Ballad
TTITLE0=Abba - I Have A Dream
TTITLE1=Lionel Richie - Hello
TTITLE2=Julie Covington - Don't Cry For Me Argentina
TTITLE3=Céline Dion - The Power Of Love
TTITLE4=Kate Winslet - What If
TTITLE5=Stef Bos - Papa
TTITLE6=Jacques Brel - Ne Me Quitte Pas
TTITLE7=Bill Withers - Ain't No Sunshine
TTITLE8=Jackson 5 - I'll Be There
TTITLE9=Ann Christy - Ik Mis Hem Zo
TTITLE10=Art Garfunkel - Bright Eyes
TTITLE11=The Alan Parsons Project - Old And Wise
TTITLE12=Rob De Nijs - Alles Wat Ademt
TTITLE13=Clouseau - Ik Denk Aan Jou
TTITLE14=Chet Baker - My Funny Valentine
TTITLE15=Vera Lynn - We'll Meet Again
TTITLE16=Paul De Leeuw - De Steen
TTITLE17=Glennis Grace - Afscheid
TTITLE18=The Walker Brothers - The Sun Ain't Gonna Shine Anymore
TTITLE19=Roger Whittaker - The Last Farewell
TTITLE20=Tina Turner - The Best
EXTD=
EXTT0=
EXTT1=
EXTT2=
EXTT3=
EXTT4=
EXTT5=
EXTT6=
EXTT7=
EXTT8=
EXTT9=
EXTT10=
EXTT11=
EXTT12=
EXTT13=
EXTT14=
EXTT15=
EXTT16=
EXTT17=
EXTT18=
EXTT19=
EXTT20=
PLAYORDER=
